<?xml version="1.0" standalone="no"?>
<!DOCTYPE svg PUBLIC "-//W3C//DTD SVG 20010904//EN"
 "http://www.w3.org/TR/2001/REC-SVG-20010904/DTD/svg10.dtd">
<svg version="1.0" xmlns="http://www.w3.org/2000/svg"
 width="1552.000000pt" height="1552.000000pt" viewBox="0 0 1552.000000 1552.000000"
 preserveAspectRatio="xMidYMid meet">
<metadata>
Created by potrace 1.14, written by Peter Selinger 2001-2017
</metadata>
<g transform="translate(0.000000,1552.000000) scale(0.100000,-0.100000)"
fill="#000000" stroke="none">
<path d="M10557 10944 c-1 -1 -49 -5 -107 -9 -58 -4 -116 -8 -130 -10 -55 -7
-117 -16 -145 -22 -16 -3 -41 -7 -55 -8 -63 -6 -271 -56 -415 -100 -307 -94
-781 -305 -1109 -494 -49 -28 -91 -51 -93 -51 -2 0 -29 -16 -59 -35 -30 -19
-56 -35 -59 -35 -2 0 -42 -24 -87 -53 -46 -30 -88 -56 -94 -58 -5 -2 -117 -76
-248 -164 -131 -88 -249 -167 -261 -175 -75 -49 -463 -332 -486 -354 -9 -9
-21 -16 -27 -16 -5 0 -12 -3 -14 -8 -2 -6 -54 -47 -178 -141 -49 -37 -475
-375 -480 -380 -3 -3 -39 -33 -80 -65 -41 -32 -79 -64 -85 -70 -5 -7 -26 -23
-45 -36 -19 -14 -42 -32 -51 -40 -8 -8 -27 -24 -40 -35 -13 -11 -49 -40 -79
-65 -30 -25 -60 -49 -66 -55 -6 -5 -42 -35 -79 -65 -37 -30 -77 -64 -89 -75
-12 -11 -44 -38 -71 -60 -28 -22 -55 -44 -61 -50 -6 -5 -35 -30 -64 -55 -30
-25 -62 -53 -72 -62 -10 -10 -20 -18 -23 -18 -2 0 -23 -18 -47 -40 -71 -68
-81 -66 -36 7 24 38 45 70 49 73 3 3 8 10 10 15 2 6 33 59 69 118 36 60 78
132 94 160 16 29 32 54 36 57 4 3 15 21 24 40 9 19 24 49 34 65 21 35 59 102
110 195 19 36 43 79 52 95 40 68 189 358 505 980 272 535 276 542 279 593 4
62 -15 144 -51 222 -41 89 -85 133 -144 146 -43 9 -125 7 -147 -5 -12 -6 -69
-80 -126 -164 -58 -83 -110 -157 -116 -164 -5 -7 -10 -17 -10 -22 0 -5 -6 -16
-12 -23 -7 -7 -46 -62 -87 -123 -73 -107 -177 -249 -203 -276 -8 -8 -35 -41
-62 -74 -26 -33 -75 -90 -108 -127 -33 -37 -69 -78 -79 -90 -120 -142 -468
-489 -599 -598 -23 -19 -54 -45 -69 -58 -14 -13 -42 -35 -61 -50 -19 -15 -48
-39 -65 -54 -16 -16 -33 -28 -37 -28 -4 0 -13 -6 -20 -13 -83 -80 -493 -333
-588 -362 -14 -4 -45 -17 -70 -28 -53 -24 -43 -20 -155 -51 -87 -23 -160 -39
-180 -38 -129 7 -167 30 -196 122 -16 51 -19 81 -14 144 3 43 7 82 10 85 2 4
6 18 9 32 3 13 7 33 9 44 7 29 69 189 76 195 3 3 21 34 40 70 73 137 206 314
343 455 72 74 82 99 45 108 -81 21 -225 -70 -412 -262 -76 -78 -225 -260 -225
-276 0 -3 -8 -15 -19 -26 -48 -52 -173 -307 -187 -383 -2 -16 -7 -33 -10 -38
-10 -16 -12 -166 -3 -209 40 -189 186 -278 449 -274 115 2 149 6 225 27 22 5
45 11 50 12 90 17 399 156 563 253 41 24 77 43 82 43 5 0 15 6 22 13 7 7 51
38 98 67 75 48 301 209 355 252 83 67 215 177 240 199 17 15 41 37 55 49 157
136 540 516 540 537 0 5 48 53 54 53 2 0 -9 -27 -25 -60 -16 -33 -29 -62 -29
-65 0 -3 -17 -42 -39 -87 -33 -73 -50 -110 -56 -128 -3 -8 -47 -105 -137 -300
-49 -105 -88 -188 -140 -299 -27 -57 -54 -113 -59 -125 -12 -29 -156 -304
-204 -391 -21 -38 -46 -83 -54 -100 -9 -16 -29 -51 -44 -76 l-28 -47 -37 38
c-74 75 -172 105 -281 87 -162 -28 -192 -226 -56 -378 17 -19 57 -52 91 -75
58 -39 65 -52 42 -79 -19 -22 -98 -147 -98 -156 0 -5 -4 -9 -9 -9 -5 0 -20
-19 -34 -42 -14 -24 -50 -77 -81 -118 -31 -41 -63 -84 -71 -95 -72 -99 -266
-333 -365 -439 -175 -188 -339 -338 -515 -470 -49 -37 -97 -73 -105 -80 -8 -6
-33 -22 -55 -36 -22 -13 -41 -28 -43 -32 -2 -4 -7 -8 -11 -8 -9 0 -169 -94
-188 -110 -7 -5 -19 -10 -27 -10 -8 0 -16 -3 -18 -7 -5 -12 -189 -99 -301
-144 -97 -39 -294 -102 -352 -113 -16 -3 -59 -12 -95 -20 -65 -15 -107 -21
-190 -31 -25 -3 -56 -7 -70 -10 -14 -3 -62 -7 -107 -9 -45 -2 -86 -6 -90 -8
-22 -11 -469 4 -533 17 -14 3 -38 8 -55 10 -31 3 -72 11 -115 20 -14 3 -36 8
-50 11 -117 23 -322 104 -435 172 -99 60 -109 66 -115 72 -3 3 -18 16 -35 29
-114 87 -222 218 -295 356 -43 82 -100 233 -114 305 -3 14 -10 44 -16 67 -9
39 -19 103 -24 164 -2 14 -5 30 -8 35 -8 13 -2 448 7 524 4 36 8 73 8 83 1 9
4 17 7 17 3 0 5 12 4 27 0 15 3 43 7 63 45 192 66 269 96 350 32 84 99 231
138 299 54 96 178 223 275 283 70 43 87 67 69 99 -22 42 -95 44 -180 3 -195
-94 -349 -252 -461 -473 -29 -58 -53 -107 -54 -110 0 -3 -6 -19 -13 -36 -14
-31 -49 -129 -57 -155 -16 -55 -55 -210 -60 -235 -17 -107 -24 -146 -30 -190
-3 -27 -8 -61 -10 -75 -8 -57 -18 -222 -17 -315 0 -99 11 -294 18 -305 1 -3 6
-31 10 -64 16 -143 94 -395 165 -537 33 -64 108 -190 120 -199 4 -3 11 -12 16
-21 26 -46 146 -175 240 -257 125 -110 422 -275 509 -283 6 0 15 -4 20 -9 12
-10 204 -58 260 -66 22 -3 54 -7 70 -10 172 -26 533 -25 730 2 22 3 54 7 70 9
17 2 44 7 60 10 95 18 142 27 155 29 8 2 35 9 60 15 25 7 52 14 60 16 41 8
252 81 338 117 252 104 638 320 793 442 15 12 39 30 55 41 54 39 169 128 209
163 22 19 54 46 71 61 159 137 305 273 483 452 143 143 252 259 393 420 83 94
96 110 136 158 21 24 44 51 52 61 8 10 33 40 55 68 22 28 43 51 46 52 5 0 70
-98 122 -185 7 -10 42 -64 78 -120 36 -55 68 -107 72 -115 4 -8 43 -67 87
-130 45 -63 101 -144 126 -180 25 -36 60 -85 77 -110 18 -25 59 -83 92 -130
32 -47 62 -87 65 -90 3 -3 22 -27 41 -55 38 -54 58 -81 77 -100 6 -8 12 -16
12 -19 0 -10 377 -489 446 -566 12 -14 46 -52 75 -85 68 -76 308 -317 374
-374 28 -24 61 -53 75 -65 14 -12 48 -40 75 -61 28 -22 52 -42 55 -45 7 -7 51
-38 147 -103 224 -152 516 -286 738 -341 6 -1 19 -5 30 -9 21 -6 25 -7 165
-32 199 -35 497 -38 645 -8 17 4 37 7 45 8 106 15 358 104 403 143 9 8 17 12
17 9 0 -8 138 83 215 142 56 42 217 199 258 249 46 59 128 175 169 242 40 64
130 235 133 250 0 3 11 28 24 55 32 70 58 144 91 260 46 166 56 217 59 294 1
22 4 21 51 -23 70 -66 157 -101 295 -123 110 -16 360 -6 475 20 93 22 273 77
284 88 6 5 16 9 24 9 44 0 459 215 594 308 26 17 49 32 53 32 3 0 18 11 33 25
15 14 30 25 34 25 8 0 35 20 172 123 87 66 279 219 286 228 3 4 23 22 45 39
39 31 176 155 262 238 24 23 46 42 48 42 2 0 105 102 229 226 l224 225 78 -5
c42 -4 86 -8 98 -11 18 -4 76 -11 156 -20 36 -4 317 -54 370 -65 25 -6 56 -13
70 -15 14 -3 37 -10 52 -16 23 -9 25 -14 18 -40 -5 -16 -9 -32 -9 -34 1 -5
-10 -74 -17 -110 -15 -77 -18 -127 -18 -250 0 -205 25 -318 105 -475 34 -67
156 -183 226 -215 267 -123 511 -100 683 63 75 72 72 103 -10 92 -8 -1 -27
-14 -43 -30 -105 -110 -277 -159 -431 -123 -276 64 -390 285 -361 698 3 44 7
91 10 105 3 14 9 48 15 75 10 50 15 73 26 132 7 35 24 35 57 1 22 -22 22 -22
41 -2 29 29 20 62 -28 95 l-43 31 14 51 c8 29 26 88 40 132 14 44 26 85 27 90
1 6 4 15 8 20 3 6 13 33 21 60 16 55 116 311 152 390 13 28 53 120 91 205 62
141 255 531 317 640 14 25 35 63 46 85 11 22 32 60 47 85 14 25 45 77 67 115
22 39 74 122 114 185 67 105 72 116 56 127 -38 28 -167 3 -222 -42 -35 -30
-119 -172 -227 -385 -44 -85 -81 -157 -84 -160 -8 -8 -73 -145 -70 -149 1 -2
-2 -7 -7 -10 -17 -12 -326 -701 -314 -701 3 0 2 -4 -4 -8 -5 -4 -18 -27 -27
-52 -9 -25 -44 -117 -78 -205 -97 -252 -102 -265 -106 -283 -1 -7 -10 -37 -20
-67 -19 -62 -7 -59 -134 -26 -41 10 -92 22 -114 25 -21 4 -42 8 -46 11 -4 3
-25 7 -46 9 -22 3 -50 7 -64 10 -14 2 -43 7 -65 10 -22 3 -50 7 -62 10 -12 2
-51 7 -88 10 -37 4 -71 8 -75 11 -4 3 -29 6 -54 7 -26 0 -49 4 -51 7 -2 4 18
29 43 57 26 28 72 79 102 113 30 35 73 82 95 106 22 23 56 62 75 85 19 24 40
48 47 55 6 7 30 34 53 61 23 27 62 72 85 99 38 44 108 128 235 284 19 24 40
48 45 55 6 6 26 31 45 56 19 25 37 47 40 50 3 3 30 37 60 75 30 39 57 72 60
75 3 3 19 23 36 45 16 22 35 46 41 55 7 8 67 87 133 175 66 88 126 167 133
175 8 8 28 36 45 62 18 25 38 52 45 60 7 7 22 28 33 46 19 33 19 34 0 47 -25
19 -37 11 -87 -60 -24 -33 -60 -81 -80 -107 l-37 -47 -6 33 c-4 19 -19 46 -34
61 -28 29 -108 70 -152 79 -91 18 -139 26 -170 30 -19 3 -35 5 -35 6 0 1 -27
4 -60 8 -138 14 -721 5 -839 -13 -11 -2 -51 -6 -88 -10 -37 -3 -77 -8 -90 -10
-20 -4 -71 -11 -148 -20 -14 -2 -37 -6 -52 -9 -38 -8 -75 -15 -123 -22 -22 -4
-44 -10 -50 -13 -5 -4 -17 -7 -25 -6 -31 3 -216 -68 -266 -101 -135 -90 -189
-213 -148 -337 17 -51 114 -167 140 -167 8 0 14 -4 14 -8 0 -9 44 -32 60 -32
5 0 14 9 19 19 9 16 3 25 -44 60 -103 78 -130 120 -120 186 15 105 215 226
487 295 87 23 287 60 403 75 17 3 48 7 70 10 81 13 103 15 265 31 46 5 344 3
395 -2 22 -2 69 -6 105 -8 181 -14 353 -77 392 -143 31 -54 29 -86 -9 -134
-19 -24 -44 -57 -56 -73 -23 -29 -45 -57 -157 -192 -36 -43 -72 -87 -80 -98
-8 -10 -23 -27 -32 -38 -10 -10 -18 -22 -18 -28 0 -5 -4 -10 -8 -10 -4 0 -36
-35 -72 -77 -35 -43 -73 -87 -84 -99 -12 -11 -37 -40 -56 -64 -19 -24 -46 -56
-60 -70 -14 -14 -41 -46 -62 -71 -20 -24 -49 -58 -65 -75 -15 -17 -64 -70
-108 -119 -92 -101 -128 -140 -302 -323 l-126 -133 -136 8 c-304 16 -746 2
-1001 -32 -19 -2 -60 -7 -90 -11 -30 -3 -57 -7 -61 -9 -3 -2 -27 -7 -53 -10
-43 -6 -259 -49 -296 -59 -8 -3 -37 -9 -64 -15 -128 -30 -318 -99 -476 -172
-72 -34 -253 -136 -285 -161 -5 -5 -39 -29 -75 -54 -122 -88 -243 -199 -328
-304 -20 -25 -40 -47 -43 -50 -13 -12 -100 -160 -123 -211 -30 -64 -69 -207
-60 -220 3 -5 0 -9 -6 -9 -6 0 -13 7 -16 15 -4 9 -19 15 -40 15 -46 0 -52 -19
-52 -156 0 -111 -5 -190 -16 -234 -3 -14 -13 -56 -22 -95 -55 -238 -171 -477
-304 -629 -32 -37 -113 -116 -164 -159 -11 -10 -32 -27 -45 -39 -96 -83 -398
-238 -511 -263 -8 -2 -62 -15 -120 -28 -141 -34 -196 -41 -320 -41 -152 0
-293 15 -450 49 -170 37 -295 75 -410 123 -80 33 -285 135 -288 143 -2 5 -9 9
-15 9 -11 0 -283 178 -308 202 -8 7 -41 33 -74 58 -32 25 -74 59 -91 75 -18
17 -50 45 -71 63 -95 83 -238 231 -345 357 -137 161 -234 281 -308 380 -25 33
-47 62 -50 65 -3 3 -39 52 -80 110 -41 58 -77 107 -80 110 -3 3 -36 52 -75
110 -38 58 -71 107 -75 110 -8 8 -29 43 -39 65 -5 12 -16 27 -25 34 -9 7 -16
17 -16 21 0 7 -118 190 -129 200 -8 7 -30 41 -38 60 -4 8 -9 17 -13 20 -5 4
-36 52 -65 102 -5 9 -52 83 -103 164 l-94 147 35 31 c19 17 47 42 63 55 16 13
45 38 64 55 20 17 60 51 90 76 29 25 72 61 95 80 23 19 63 53 90 75 27 22 53
45 59 50 6 6 47 40 91 75 43 36 88 72 100 82 60 49 171 139 180 146 6 4 39 31
75 60 244 199 685 537 925 709 33 24 65 47 70 51 17 13 206 146 305 214 187
129 262 178 270 178 5 0 10 4 12 8 2 5 41 33 88 62 47 30 88 58 91 63 3 5 10
9 15 9 5 0 34 16 64 36 86 55 410 252 415 252 3 0 26 13 52 29 151 92 568 301
793 398 245 104 466 183 640 228 188 49 392 76 575 77 188 2 247 -19 286 -100
98 -201 -49 -608 -329 -912 -18 -19 -42 -54 -53 -77 -20 -41 -20 -43 -2 -62
34 -36 116 -14 238 64 56 36 127 106 210 210 31 39 62 77 68 85 29 36 109 171
141 240 93 196 102 396 23 515 -77 117 -234 196 -422 211 -65 5 -284 11 -288
8z m2698 -3218 c11 -2 24 -5 29 -5 13 -1 -478 -482 -636 -622 -166 -148 -411
-345 -508 -409 -12 -8 -28 -20 -34 -25 -31 -29 -248 -161 -351 -214 -38 -20
-71 -39 -73 -43 -2 -5 -8 -8 -13 -8 -4 0 -34 -12 -66 -27 -32 -14 -60 -27 -63
-28 -3 -1 -21 -8 -40 -16 -66 -29 -211 -73 -280 -84 -19 -3 -42 -8 -50 -10
-47 -14 -268 -21 -325 -10 -71 13 -92 19 -132 36 -72 31 -134 108 -150 189 -4
24 -7 89 -3 100 0 3 3 23 5 45 12 109 121 307 250 454 183 208 495 406 817
517 40 14 78 27 83 28 6 1 30 9 55 16 25 7 50 14 55 16 6 1 39 9 75 17 58 14
115 25 160 31 15 3 90 16 120 21 9 2 43 6 75 10 33 4 74 9 90 11 17 2 75 7
130 10 55 4 102 8 104 10 5 5 654 -4 676 -10z"/>
<path d="M8735 8781 c-6 -5 -57 -33 -115 -63 -90 -46 -370 -234 -385 -258 -3
-5 4 -33 15 -62 13 -36 29 -59 49 -71 45 -27 69 -21 112 26 43 46 186 246 208
288 7 15 23 31 36 37 35 16 92 70 98 92 5 21 -3 26 -18 11z"/>
<path d="M7520 8653 c-34 -27 -46 -39 -134 -133 -113 -121 -224 -281 -280
-402 -40 -88 -88 -219 -82 -225 16 -16 -132 -319 -222 -454 -105 -157 -131
-216 -97 -216 25 0 94 91 147 195 7 15 18 22 29 19 25 -7 45 20 111 146 11 20
23 37 27 37 3 -1 16 -22 28 -48 12 -26 44 -71 72 -101 57 -62 59 -42 -24 -216
-63 -130 -73 -158 -81 -223 -6 -50 9 -101 44 -154 32 -49 64 -69 121 -74 41
-4 52 0 75 21 15 14 30 25 34 25 9 0 39 30 146 142 77 80 82 84 71 50 -12 -34
-16 -54 -31 -137 -10 -58 -7 -191 5 -230 31 -101 61 -129 133 -127 24 1 67 2
95 2 45 1 60 7 105 41 29 21 55 39 58 39 11 0 170 156 170 166 0 6 17 25 39
42 41 33 122 161 190 301 40 82 49 111 34 111 -13 0 -71 -71 -84 -103 -11 -27
-68 -108 -90 -127 -7 -6 -78 -97 -104 -134 -26 -37 -74 -86 -84 -86 -4 0 -41
-30 -82 -66 -88 -78 -116 -94 -151 -87 -24 5 -26 8 -17 25 9 16 7 23 -9 34
-17 12 -20 23 -17 91 3 82 7 106 32 188 41 134 150 305 193 305 10 0 25 20 40
53 21 46 39 76 90 141 8 11 40 45 70 77 111 115 125 147 91 202 -25 41 -84 95
-135 125 -53 31 -149 32 -130 1 10 -17 -25 -114 -64 -174 -21 -33 -49 -82 -64
-110 -64 -124 -79 -149 -97 -162 -11 -7 -34 -37 -51 -66 -48 -82 -53 -88 -96
-147 -40 -53 -199 -210 -264 -260 -48 -37 -80 -52 -95 -46 -23 9 -14 31 117
286 82 159 78 198 -27 300 -63 61 -84 95 -78 125 9 48 10 71 3 89 -15 43 67
242 146 351 59 83 148 173 210 212 64 42 183 130 203 152 30 32 40 69 28 103
-6 20 -33 42 -92 77 -110 64 -130 68 -175 34z"/>
<path d="M10320 8342 c-28 -14 -36 -26 -48 -72 -8 -30 -31 -77 -50 -105 -20
-27 -30 -51 -24 -53 7 -2 0 -25 -18 -60 -16 -31 -37 -80 -48 -108 -10 -28 -34
-73 -53 -100 -24 -36 -34 -61 -35 -94 -1 -25 -9 -65 -18 -90 -10 -25 -26 -69
-36 -98 -11 -29 -23 -58 -27 -65 -4 -6 -8 -15 -9 -19 -1 -5 -2 -9 -4 -10 -1
-2 -3 -10 -5 -18 -2 -8 -17 -54 -34 -102 -17 -48 -32 -104 -34 -125 -1 -21 -7
-44 -11 -52 -5 -7 -10 -59 -12 -114 -5 -119 -8 -149 -17 -163 -3 -6 -5 -22 -3
-35 2 -13 7 -49 11 -79 3 -30 15 -74 25 -98 11 -24 19 -47 17 -51 -4 -17 63
-89 98 -105 46 -22 88 -17 155 20 54 30 90 70 90 101 -1 17 -2 17 -18 -2 -43
-51 -102 -71 -146 -49 -64 31 -71 40 -73 107 -1 34 -4 95 -7 135 -3 41 -1 84
5 100 6 15 14 61 18 102 5 42 15 91 23 110 22 50 30 72 33 97 2 12 19 49 39
82 20 32 39 74 43 92 3 19 11 37 18 41 6 4 18 26 25 50 7 24 17 48 22 54 5 7
11 28 13 49 3 20 12 48 20 63 19 35 19 24 0 -21 -8 -20 -11 -38 -6 -41 5 -3
11 1 15 9 3 8 12 15 19 15 7 0 19 10 25 23 14 27 32 97 26 97 -3 0 7 12 21 28
14 15 33 43 41 62 8 19 18 37 22 40 5 3 26 34 47 70 21 36 41 67 44 70 13 12
71 130 64 130 -4 0 -2 4 5 9 8 4 16 26 19 48 5 37 2 42 -28 65 -33 24 -104 54
-148 63 -13 2 -30 7 -39 9 -10 3 -33 -2 -52 -12z"/>
<path d="M8533 8247 c-13 -5 -23 -14 -23 -19 0 -9 41 -27 78 -34 13 -3 34 -12
47 -20 23 -15 23 -16 4 -35 -14 -14 -16 -24 -10 -41 11 -29 5 -85 -15 -140
-21 -58 -27 -95 -15 -102 5 -4 1 -26 -10 -56 -13 -34 -17 -66 -14 -102 3 -40
-3 -76 -27 -148 -17 -52 -35 -101 -41 -107 -5 -7 -7 -13 -3 -13 3 0 -4 -17
-17 -37 -13 -21 -27 -48 -31 -61 -4 -12 -18 -30 -31 -38 -30 -19 -77 -101 -64
-110 15 -9 5 -74 -20 -129 -31 -68 -48 -122 -55 -170 -7 -54 -59 -195 -88
-238 -14 -22 -39 -43 -66 -54 -23 -9 -41 -22 -39 -27 6 -17 59 -26 101 -16 23
5 56 12 75 15 63 11 107 41 190 129 25 27 71 75 101 107 58 61 69 76 154 206
30 46 67 93 82 107 16 13 42 48 58 77 30 58 70 111 124 169 19 19 47 55 62 80
16 25 39 51 50 58 12 7 33 39 47 70 14 31 34 66 45 77 10 11 30 36 44 55 l25
35 -4 -45 c-3 -25 -8 -54 -12 -65 -4 -11 -11 -31 -16 -45 -5 -14 -14 -38 -20
-55 -7 -16 -13 -32 -13 -35 -2 -8 -27 -73 -37 -95 -11 -24 -17 -52 -25 -120
-4 -27 -14 -88 -24 -135 -9 -47 -16 -122 -16 -167 1 -46 -2 -83 -5 -83 -20 0
-16 -35 6 -62 14 -16 25 -33 25 -37 0 -25 137 -39 159 -16 5 6 12 27 15 48 11
70 71 178 136 247 34 35 101 121 150 190 49 69 109 146 132 171 81 86 163 182
179 208 9 14 50 67 92 116 77 90 105 135 113 181 3 18 0 24 -14 24 -23 0 -63
-43 -90 -95 -12 -22 -34 -54 -49 -72 -15 -18 -45 -51 -65 -75 -20 -24 -56 -64
-80 -89 -24 -25 -61 -66 -84 -90 -23 -25 -76 -76 -119 -114 -109 -97 -137
-125 -165 -165 -13 -19 -27 -37 -30 -40 -3 -3 -16 -22 -30 -42 -13 -20 -27
-35 -31 -32 -8 5 5 76 25 133 8 25 12 57 9 73 -3 16 -1 28 5 28 5 0 13 12 17
27 3 15 19 55 36 89 16 35 29 69 29 77 0 7 3 17 8 21 4 4 7 11 8 14 0 4 8 25
18 47 64 147 105 267 109 324 2 34 1 64 -3 66 -17 11 -129 -29 -183 -65 -33
-22 -61 -40 -63 -40 -5 0 -44 -33 -112 -94 -29 -27 -42 -46 -39 -58 6 -21 -20
-62 -96 -151 -30 -35 -74 -93 -97 -128 -41 -60 -142 -190 -183 -234 -10 -11
-35 -45 -55 -75 -35 -55 -150 -180 -164 -180 -13 0 -48 -39 -48 -54 0 -23 -37
-62 -49 -51 -6 7 -2 32 14 78 13 37 24 68 24 70 0 3 17 47 36 92 9 22 18 49
21 60 2 11 12 27 22 35 10 8 24 31 31 50 19 51 41 92 63 116 11 12 20 29 22
37 1 8 7 21 13 28 13 17 53 105 53 118 0 5 4 11 10 13 5 2 12 18 14 37 2 19
11 40 20 46 18 14 21 47 6 74 -7 14 -3 23 16 40 46 40 112 214 106 278 -6 60
-101 107 -305 148 -10 2 -27 7 -38 10 -37 12 -74 13 -96 2z m88 -940 c-10 -9
-11 -8 -5 6 3 10 9 15 12 12 3 -3 0 -11 -7 -18z"/>
</g>
</svg>
