<svg width="194" height="81" viewBox="0 0 194 81" fill="none" xmlns="http://www.w3.org/2000/svg">
<path d="M108.095 80.56C104.308 80.56 100.815 79.8933 97.6148 78.56C94.4681 77.28 91.5081 75.4933 88.7348 73.2C86.0148 70.96 83.4014 68.32 80.8948 65.28C78.4414 62.2933 76.0148 59.12 73.6148 55.76C72.2814 53.8933 70.9214 51.9467 69.5348 49.92C68.2014 47.8933 66.8681 45.8133 65.5348 43.68C61.2681 48.96 56.8948 53.6 52.4148 57.6C47.9881 61.6533 43.3214 64.8 38.4148 67.04C33.5614 69.3333 28.3081 70.48 22.6548 70.48C15.8814 70.48 10.5214 68.5067 6.57477 64.56C2.6281 60.6667 0.628099 55.2533 0.574766 48.32C0.574766 45.9733 0.841432 43.4667 1.37477 40.8C1.9081 38.08 2.84143 35.5733 4.17477 33.28C5.56143 30.9867 7.4281 29.3067 9.77477 28.24C9.88143 28.1333 10.0148 28.08 10.1748 28.08C10.3348 28.08 10.4681 28.08 10.5748 28.08C11.3214 28.08 11.6948 28.32 11.6948 28.8C11.6948 29.0667 11.5348 29.28 11.2148 29.44C9.5081 30.3467 8.09477 31.8133 6.97477 33.84C5.9081 35.8667 5.1081 38.08 4.57477 40.48C4.09477 42.88 3.85477 45.1467 3.85477 47.28C3.85477 53.7333 5.64143 58.48 9.21477 61.52C12.7881 64.56 17.7748 66.08 24.1748 66.08C29.9348 66.08 35.1081 64.9867 39.6948 62.8C44.2814 60.6133 48.4148 57.6533 52.0948 53.92C55.7748 50.1333 59.0814 45.8933 62.0148 41.2C59.9881 40.1333 58.9748 38.8 58.9748 37.2C58.9748 36.56 59.1881 36.0267 59.6148 35.6C60.0414 35.1733 60.6548 34.96 61.4548 34.96C62.2014 34.96 62.8414 35.12 63.3748 35.44C63.9081 35.7067 64.3614 36.1067 64.7348 36.64C66.7081 33.2267 68.5214 29.7333 70.1748 26.16C71.8814 22.5333 73.5081 18.9333 75.0548 15.36C73.0281 17.76 70.7348 20.1067 68.1748 22.4C65.6681 24.6933 63.0814 26.7467 60.4148 28.56C57.7481 30.3733 55.1881 31.8133 52.7348 32.88C50.3348 33.9467 48.2014 34.48 46.3348 34.48C44.3614 34.48 42.9214 34.08 42.0148 33.28C41.1081 32.4267 40.6548 31.3333 40.6548 30C40.6548 28.6133 41.0548 27.12 41.8548 25.52C42.7081 23.8667 43.7748 22.2667 45.0548 20.72C46.3881 19.1733 47.7748 17.8667 49.2148 16.8C49.4281 16.64 49.6681 16.5067 49.9348 16.4C50.2014 16.24 50.4414 16.1333 50.6548 16.08C50.7614 16.08 50.8681 16.08 50.9748 16.08C51.0814 16.0267 51.1614 16 51.2148 16C51.8548 16.1067 51.9348 16.4 51.4548 16.88C50.4414 17.84 49.4281 18.9867 48.4148 20.32C47.4014 21.6533 46.5481 23.0667 45.8548 24.56C45.2148 26 44.8414 27.44 44.7348 28.88C44.7881 29.7867 44.9748 30.5067 45.2948 31.04C45.6681 31.52 46.2814 31.76 47.1348 31.76C47.2948 31.76 47.4548 31.76 47.6148 31.76C47.7748 31.76 47.9348 31.7333 48.0948 31.68C50.8681 31.2 53.7481 29.9733 56.7348 28C59.7748 26.0267 62.7348 23.6533 65.6148 20.88C68.4948 18.0533 71.1081 15.2 73.4548 12.32C74.0948 11.5733 74.8414 10.5867 75.6948 9.36C76.5481 8.08 77.4014 6.8 78.2548 5.52C79.1081 4.24 79.8281 3.22666 80.4148 2.48C80.6281 2.42666 80.8148 2.4 80.9748 2.4C81.1348 2.34667 81.2948 2.32 81.4548 2.32C82.6814 2.32 83.5348 2.85333 84.0148 3.92C84.5481 4.98666 84.8148 5.94666 84.8148 6.8C84.8148 7.17333 84.7614 7.52 84.6548 7.84C82.3614 12.3733 79.8814 17.2533 77.2148 22.48C74.5481 27.7067 71.6148 32.8533 68.4148 37.92C73.6948 33.3867 79.0814 28.9333 84.5748 24.56C90.1214 20.1333 95.6414 16.1333 101.135 12.56C106.681 8.93333 112.121 6.05333 117.455 3.92C122.841 1.78666 128.041 0.719996 133.055 0.719996C133.481 0.719996 133.908 0.719996 134.335 0.719996C134.761 0.719996 135.188 0.746663 135.615 0.799995C137.428 0.959997 138.868 1.49333 139.935 2.4C141.001 3.30666 141.535 4.53333 141.535 6.08C141.535 7.41333 141.108 8.88 140.255 10.48C139.455 12.08 138.175 13.8133 136.415 15.68C136.041 16.0533 135.561 16.4267 134.975 16.8C134.388 17.12 133.881 17.36 133.455 17.52C133.348 17.5733 133.161 17.6 132.895 17.6C132.521 17.6 132.281 17.44 132.175 17.12C132.175 17.0133 132.228 16.8267 132.335 16.56C132.495 16.2933 132.761 15.9467 133.135 15.52C134.681 13.76 135.801 12.0533 136.495 10.4C137.188 8.74666 137.535 7.33333 137.535 6.16C137.535 4.18666 136.815 3.14666 135.375 3.04C135.055 2.98666 134.708 2.96 134.335 2.96C134.015 2.96 133.695 2.96 133.375 2.96C129.588 2.96 125.215 3.97333 120.255 6C115.295 7.97333 109.961 10.72 104.255 14.24C98.5481 17.76 92.6014 21.8667 86.4148 26.56C80.2814 31.2533 74.0948 36.2933 67.8548 41.68C69.0814 43.7067 70.2548 45.5733 71.3748 47.28C72.4948 48.9867 73.6681 50.7733 74.8948 52.64C77.7214 56.8533 80.7081 60.72 83.8548 64.24C87.0548 67.76 90.6014 70.6133 94.4948 72.8C98.4414 74.9867 102.895 76.2133 107.855 76.48C109.028 76.5333 110.441 76.3733 112.095 76C113.748 75.68 115.428 75.0933 117.135 74.24C118.895 73.3867 120.548 72.1867 122.095 70.64C123.641 69.1467 124.868 67.2267 125.775 64.88C126.361 63.3333 126.761 61.8933 126.975 60.56C127.188 59.28 127.241 58.1067 127.135 57.04V56.8C127.135 56.16 127.348 55.84 127.775 55.84C128.148 55.84 128.441 56.1067 128.655 56.64C128.868 57.0133 129.001 57.3867 129.055 57.76C129.108 58.1867 129.135 58.6133 129.135 59.04C129.135 60.0533 128.975 61.12 128.655 62.24C128.388 63.36 128.095 64.3733 127.775 65.28C125.801 70.2933 123.135 74.08 119.775 76.64C116.415 79.2533 112.521 80.56 108.095 80.56ZM90.0414 52.496C89.9454 52.496 89.8654 52.464 89.8014 52.4C89.7694 52.432 89.6734 52.448 89.5134 52.448C89.0974 52.448 88.6814 52.16 88.2654 51.584C87.8494 51.008 87.6414 50.512 87.6414 50.096C87.6414 49.36 87.8334 48.592 88.2174 47.792L89.2734 45.584C89.4654 45.2 89.5614 44.944 89.5614 44.816C89.5614 44.816 89.4814 44.688 89.3214 44.432L89.0814 44.192C89.0174 44.128 88.9534 44.08 88.8894 44.048C88.8574 43.984 88.8094 43.92 88.7454 43.856C88.5534 43.632 88.3614 43.376 88.1694 43.088C87.9774 42.8 87.8494 42.464 87.7854 42.08C87.7214 42.144 87.5774 42.384 87.3534 42.8C87.1294 43.216 86.9054 43.616 86.6814 44C86.4574 44.384 86.2814 44.576 86.1534 44.576C86.0894 44.576 86.0414 44.56 86.0094 44.528C85.9774 44.496 85.9294 44.48 85.8654 44.48C85.8014 44.48 85.7214 44.608 85.6254 44.864C85.4974 45.056 85.3214 45.344 85.0974 45.728C84.8734 46.08 84.6494 46.416 84.4254 46.736C84.2014 47.056 83.9934 47.216 83.8014 47.216C83.6734 47.216 83.6094 47.152 83.6094 47.024C83.6094 46.928 83.6734 46.752 83.8014 46.496C83.9294 46.208 84.0734 45.936 84.2334 45.68C84.4254 45.392 84.5534 45.216 84.6174 45.152C85.0014 44.608 85.3214 44.128 85.5774 43.712C85.8334 43.296 86.0734 42.864 86.2974 42.416C86.4894 42 86.6814 41.584 86.8734 41.168C87.0974 40.72 87.3534 40.224 87.6414 39.68C87.7054 39.232 87.8014 38.768 87.9294 38.288C88.4094 36.848 88.9694 35.6 89.6094 34.544C90.2814 33.456 91.1134 32.352 92.1054 31.232C92.3294 31.008 92.5854 30.736 92.8734 30.416C93.1934 30.064 93.5134 29.744 93.8334 29.456C94.1534 29.168 94.4254 29.024 94.6494 29.024C94.8414 29.024 95.0654 29.104 95.3214 29.264C95.4494 29.328 95.5614 29.392 95.6574 29.456C95.7534 29.52 95.8494 29.584 95.9454 29.648L96.9054 30.176C97.2574 30.368 97.4334 30.672 97.4334 31.088C97.4334 31.248 97.4174 31.344 97.3854 31.376C97.2894 31.728 96.9694 32.112 96.4254 32.528C95.9134 32.912 95.3374 33.312 94.6974 33.728C94.0894 34.144 93.5934 34.544 93.2094 34.928C92.6334 35.44 92.1374 36.016 91.7214 36.656C91.3054 37.296 90.9214 37.984 90.5694 38.72C90.5374 38.848 90.4894 38.96 90.4254 39.056C90.3934 39.152 90.3614 39.264 90.3294 39.392C90.2974 39.616 90.2174 39.872 90.0894 40.16C90.0574 40.224 90.0254 40.304 89.9934 40.4C89.9614 40.464 89.9454 40.544 89.9454 40.64C89.9454 40.8 89.9614 40.912 89.9934 40.976C90.0254 41.072 90.0414 41.2 90.0414 41.36C90.0414 41.552 90.0254 41.68 89.9934 41.744C89.9614 41.84 89.9454 41.984 89.9454 42.176C89.9454 42.528 90.1214 42.864 90.4734 43.184C90.8254 43.472 91.1614 43.792 91.4814 44.144C91.8334 44.496 92.0094 44.896 92.0094 45.344C92.0094 45.728 91.8814 46.192 91.6254 46.736C91.3694 47.28 91.0814 47.824 90.7614 48.368C90.4414 48.912 90.1854 49.408 89.9934 49.856L89.7534 50.432L89.6574 50.768C89.6574 50.832 89.6734 50.864 89.7054 50.864L89.8014 51.008C90.0894 51.008 90.4894 50.8 91.0014 50.384C91.5134 49.968 92.0254 49.52 92.5374 49.04C93.0494 48.528 93.4014 48.176 93.5934 47.984C93.9774 47.568 94.3294 47.136 94.6494 46.688C94.9694 46.208 95.2734 45.728 95.5614 45.248C95.6254 45.088 95.7214 44.912 95.8494 44.72C96.0094 44.496 96.1694 44.384 96.3294 44.384C96.5214 44.384 96.6174 44.496 96.6174 44.72C96.6174 44.912 96.4414 45.296 96.0894 45.872C95.7694 46.416 95.4174 46.96 95.0334 47.504C94.6494 48.048 94.3774 48.4 94.2174 48.56L94.1694 48.656V48.704C94.0734 48.928 93.9294 49.072 93.7374 49.136C93.7054 49.168 93.6574 49.248 93.5934 49.376C93.5294 49.504 93.4814 49.584 93.4494 49.616C93.4494 49.68 93.4014 49.744 93.3054 49.808L93.1134 49.856C93.0814 49.984 92.9854 50.096 92.8254 50.192L92.5374 50.48C92.5054 50.48 92.4894 50.496 92.4894 50.528C92.4894 50.56 92.4734 50.576 92.4414 50.576C92.4094 50.768 92.2814 50.864 92.0574 50.864C91.9934 50.992 91.8974 51.152 91.7694 51.344C91.6734 51.536 91.5454 51.632 91.3854 51.632C91.2254 51.856 91.0174 51.968 90.7614 51.968C90.7294 52 90.7134 52.048 90.7134 52.112C90.7134 52.144 90.6974 52.176 90.6654 52.208C90.6014 52.368 90.4574 52.448 90.2334 52.448C90.2014 52.48 90.1374 52.496 90.0414 52.496ZM104.466 33.632C103.986 33.632 103.602 33.424 103.314 33.008C103.058 32.56 102.93 32.128 102.93 31.712C103.89 31.008 104.85 30.32 105.81 29.648C106.802 28.944 107.81 28.4 108.834 28.016L109.41 27.584L109.458 27.776C109.458 27.968 109.25 28.24 108.834 28.592C108.418 28.912 108.114 29.104 107.922 29.168C107.89 29.232 107.73 29.504 107.442 29.984C107.154 30.432 106.802 30.944 106.386 31.52C106.002 32.064 105.618 32.56 105.234 33.008C104.882 33.424 104.626 33.632 104.466 33.632ZM95.0581 55.712C94.6101 55.712 94.2581 55.552 94.0021 55.232C93.7461 54.88 93.5701 54.464 93.4741 53.984C93.3781 53.504 93.3301 53.088 93.3301 52.736C93.3301 51.488 93.5381 50.24 93.9541 48.992C94.4021 47.712 94.9301 46.544 95.5381 45.488C95.6981 45.2 95.8741 44.944 96.0661 44.72L96.5461 44C96.6421 43.84 96.7381 43.648 96.8341 43.424C96.8981 43.2 96.9941 43.024 97.1221 42.896C97.2821 42.576 97.4581 42.24 97.6501 41.888C97.8741 41.536 98.0981 41.184 98.3221 40.832C98.7701 40.096 98.9941 39.344 98.9941 38.576C99.0261 38.608 99.0741 38.624 99.1381 38.624H99.1861C99.3141 38.624 99.4101 38.608 99.4741 38.576H99.6661C99.9861 38.576 100.354 38.72 100.77 39.008C101.218 39.296 101.618 39.648 101.97 40.064C102.322 40.448 102.498 40.8 102.498 41.12C102.498 41.344 102.37 41.6 102.114 41.888C101.89 42.176 101.634 42.464 101.346 42.752L100.914 43.184L100.482 43.664C100.258 43.92 100.034 44.208 99.8101 44.528C99.5861 44.816 99.3781 45.136 99.1861 45.488C99.1221 45.552 99.0901 45.632 99.0901 45.728C99.0901 45.856 99.0741 45.936 99.0421 45.968C99.0421 46.16 98.8821 46.32 98.5621 46.448V46.208C97.7621 47.008 97.0901 48.016 96.5461 49.232C96.0341 50.448 95.7781 51.6 95.7781 52.688V53.12C95.7781 53.344 95.8101 53.488 95.8741 53.552C95.9061 53.68 95.9701 53.744 96.0661 53.744H96.1621C96.1621 53.776 96.1781 53.792 96.2101 53.792C96.2101 53.824 96.2261 53.84 96.2581 53.84V53.888C96.2581 53.952 96.2101 54.032 96.1141 54.128L96.0661 54.176C96.0021 54.24 95.9701 54.272 95.9701 54.272C95.9701 54.304 96.0821 54.352 96.3061 54.416C96.5301 54.448 96.6581 54.464 96.6901 54.464C96.8181 54.464 97.0261 54.352 97.3141 54.128C97.6021 53.872 97.9061 53.6 98.2261 53.312C98.5461 53.024 98.8021 52.816 98.9941 52.688C99.2181 52.496 99.4261 52.368 99.6181 52.304C99.8741 51.984 100.13 51.664 100.386 51.344C100.642 51.024 100.882 50.704 101.106 50.384C101.362 50.064 101.602 49.76 101.826 49.472C102.082 49.184 102.338 48.88 102.594 48.56V48.464C102.594 48.4 102.674 48.24 102.834 47.984C103.026 47.696 103.218 47.424 103.41 47.168C103.634 46.912 103.778 46.784 103.842 46.784C103.874 46.816 103.89 46.896 103.89 47.024C103.89 47.152 103.874 47.232 103.842 47.264C103.65 47.68 103.362 48.272 102.978 49.04C102.594 49.776 102.194 50.464 101.778 51.104C101.394 51.744 101.026 52.112 100.674 52.208C100.61 52.368 100.514 52.56 100.386 52.784C100.258 53.008 100.098 53.152 99.9061 53.216C99.8101 53.376 99.6821 53.456 99.5221 53.456C99.4261 53.712 99.3141 53.856 99.1861 53.888C99.1221 53.952 99.0581 54.016 98.9941 54.08C98.9301 54.112 98.8821 54.144 98.8501 54.176C98.8181 54.304 98.7061 54.432 98.5141 54.56C98.3221 54.656 98.1621 54.736 98.0341 54.8C97.8741 54.96 97.6661 55.136 97.4101 55.328C97.1541 55.52 96.8981 55.616 96.6421 55.616H96.4981L96.3541 55.568H96.2581C96.2261 55.536 96.1781 55.52 96.1141 55.52C96.0181 55.52 95.8421 55.552 95.5861 55.616C95.3301 55.68 95.1541 55.712 95.0581 55.712ZM125.518 56.096C125.038 56.096 124.654 55.952 124.366 55.664C124.078 55.376 123.806 55.056 123.55 54.704C123.582 54.64 123.598 54.592 123.598 54.56C123.63 54.528 123.646 54.512 123.646 54.512C123.646 54.48 123.614 54.432 123.55 54.368C123.294 53.92 123.134 53.44 123.07 52.928C123.006 52.384 122.958 51.872 122.926 51.392L123.022 51.296C123.086 50.816 123.134 50.336 123.166 49.856C123.198 49.376 123.214 48.88 123.214 48.368C123.214 48.144 123.294 47.92 123.454 47.696V47.648C123.422 47.648 123.406 47.632 123.406 47.6V47.552C123.406 47.488 123.422 47.456 123.454 47.456C123.486 46.976 123.582 46.512 123.742 46.064C123.998 45.264 124.27 44.496 124.558 43.76C124.846 42.992 125.166 42.16 125.518 41.264C125.614 41.168 125.63 41.072 125.566 40.976L125.47 40.784C125.47 40.432 125.598 40.048 125.854 39.632C126.142 39.216 126.382 38.864 126.574 38.576C126.574 38.416 126.654 38.16 126.814 37.808C126.974 37.424 127.134 37.056 127.294 36.704C127.486 36.352 127.614 36.144 127.678 36.08C127.422 36.144 127.31 36.128 127.342 36.032C127.406 35.904 127.47 35.84 127.534 35.84L128.014 35.12C128.174 34.928 128.27 34.688 128.302 34.4C128.366 34.144 128.446 33.888 128.542 33.632C128.638 33.376 128.846 33.216 129.166 33.152C129.23 33.088 129.326 33.056 129.454 33.056C129.71 33.056 130.062 33.136 130.51 33.296C130.99 33.424 131.422 33.6 131.806 33.824C132.19 34.048 132.382 34.288 132.382 34.544C132.382 34.832 132.254 35.216 131.998 35.696C131.774 36.144 131.518 36.624 131.23 37.136L130.318 38.576C129.998 39.024 129.758 39.44 129.598 39.824H129.502V39.968L129.07 40.4V40.592L129.022 40.64C128.99 40.864 128.942 41.104 128.878 41.36C128.814 41.584 128.702 41.808 128.542 42.032L128.254 41.984C128.062 42.4 127.95 42.496 127.918 42.272C127.918 42.048 128.046 41.728 128.302 41.312L128.206 41.168C128.078 41.424 127.966 41.664 127.87 41.888C127.806 42.08 127.79 42.32 127.822 42.608V42.56L127.87 42.608L127.678 42.704L127.534 43.184C127.502 43.28 127.47 43.376 127.438 43.472C127.406 43.568 127.374 43.648 127.342 43.712C127.214 44.096 127.038 44.32 126.814 44.384L126.862 44.672L126.718 45.104C126.654 45.328 126.638 45.472 126.67 45.536H126.478V45.584L125.758 46.784C125.79 46.816 125.806 46.864 125.806 46.928C125.806 47.12 125.726 47.408 125.566 47.792C125.342 48.208 125.214 48.528 125.182 48.752C125.15 48.816 125.118 48.88 125.086 48.944C125.086 49.008 125.102 49.104 125.134 49.232L125.086 49.184C125.086 49.216 125.086 49.248 125.086 49.28C125.118 49.312 125.134 49.328 125.134 49.328V49.52C125.134 49.936 125.07 50.288 124.942 50.576C124.814 50.928 124.75 51.296 124.75 51.68C124.75 51.872 124.782 52.096 124.846 52.352C124.878 52.48 124.894 52.608 124.894 52.736C124.926 52.832 124.942 52.944 124.942 53.072C124.942 53.264 124.926 53.408 124.894 53.504C124.862 53.568 124.846 53.648 124.846 53.744C124.846 53.84 124.846 53.92 124.846 53.984C124.846 54.24 125.006 54.512 125.326 54.8C125.646 55.056 125.934 55.184 126.19 55.184C126.574 55.184 126.846 55.12 127.006 54.992C127.07 54.928 127.15 54.864 127.246 54.8C127.374 54.704 127.502 54.624 127.63 54.56L127.87 54.08V54.656L127.822 54.704C127.662 55.056 127.326 55.376 126.814 55.664C126.302 55.952 125.87 56.096 125.518 56.096ZM101.71 55.712C101.646 55.712 101.534 55.68 101.374 55.616C101.214 55.52 101.118 55.408 101.086 55.28H101.23C101.294 55.248 101.374 55.216 101.47 55.184C101.534 55.152 101.582 55.12 101.614 55.088C101.678 55.056 101.758 55.024 101.854 54.992C101.918 54.96 101.982 54.928 102.046 54.896C102.27 54.768 102.478 54.512 102.67 54.128C102.862 53.744 103.022 53.344 103.15 52.928C103.31 52.48 103.422 52.16 103.486 51.968L103.63 51.344C103.63 51.216 103.63 51.104 103.63 51.008C103.662 50.912 103.694 50.816 103.726 50.72C103.822 50.368 103.934 50.032 104.062 49.712C104.222 49.392 104.382 49.072 104.542 48.752C104.574 48.688 104.59 48.544 104.59 48.32C104.622 48.096 104.638 47.936 104.638 47.84C104.606 47.84 104.558 47.808 104.494 47.744C104.462 47.712 104.446 47.68 104.446 47.648C104.446 47.584 104.462 47.552 104.494 47.552C104.59 47.328 104.702 47.088 104.83 46.832C104.99 46.544 105.198 46.368 105.454 46.304C105.518 46.144 105.598 45.984 105.694 45.824C105.79 45.664 105.87 45.504 105.934 45.344C105.998 45.184 106.078 45.04 106.174 44.912C106.27 44.752 106.35 44.592 106.414 44.432L106.846 43.136C106.91 42.912 106.974 42.704 107.038 42.512C107.134 42.288 107.246 42.08 107.374 41.888H107.23L107.134 41.6L107.326 41.312L106.99 41.216C107.086 41.184 107.166 41.136 107.23 41.072V41.024C107.134 40.928 107.086 40.832 107.086 40.736C107.086 40.672 107.102 40.64 107.134 40.64C107.198 40.512 107.246 40.4 107.278 40.304C107.31 40.176 107.342 40.048 107.374 39.92C107.438 39.664 107.55 39.456 107.71 39.296H107.614C107.614 39.328 107.566 39.344 107.47 39.344C107.406 39.344 107.374 39.296 107.374 39.2C107.374 39.04 107.406 38.864 107.47 38.672C107.534 38.448 107.598 38.256 107.662 38.096C107.726 37.872 107.79 37.648 107.854 37.424C107.918 37.2 107.95 36.976 107.95 36.752C107.95 36.624 107.934 36.528 107.902 36.464C107.838 36.336 107.806 36.224 107.806 36.128C107.806 36 107.87 35.872 107.998 35.744C108.094 35.68 108.19 35.6 108.286 35.504C108.094 35.44 107.966 35.376 107.902 35.312C107.838 35.216 107.726 35.152 107.566 35.12H107.518L107.038 35.024L106.654 34.88C106.494 34.816 106.414 34.736 106.414 34.64C106.414 34.544 106.494 34.464 106.654 34.4C106.846 34.336 106.958 34.288 106.99 34.256C107.438 34.352 108.014 34.48 108.718 34.64C109.454 34.8 110.142 34.992 110.782 35.216C111.422 35.44 111.838 35.696 112.03 35.984C112.094 36.112 112.126 36.24 112.126 36.368C112.158 36.464 112.174 36.56 112.174 36.656C112.174 36.88 112.078 37.264 111.886 37.808C111.726 38.352 111.518 38.864 111.262 39.344C111.006 39.792 110.734 40.064 110.446 40.16L110.494 40.208L110.686 40.544C110.75 40.736 110.782 40.832 110.782 40.832C110.782 40.928 110.75 41.04 110.686 41.168C110.654 41.264 110.574 41.328 110.446 41.36L110.398 41.408C110.398 41.44 110.382 41.472 110.35 41.504C110.318 41.536 110.302 41.584 110.302 41.648C110.302 41.744 110.286 41.808 110.254 41.84H110.302V42.032C110.302 42.224 110.206 42.368 110.014 42.464C109.982 42.624 109.87 42.912 109.678 43.328C109.518 43.712 109.39 43.952 109.294 44.048L109.102 44.336C109.134 44.368 109.15 44.4 109.15 44.432C109.15 44.528 109.118 44.576 109.054 44.576L108.958 44.672C108.926 44.768 108.846 44.88 108.718 45.008C108.686 45.072 108.638 45.136 108.574 45.2C108.542 45.232 108.51 45.28 108.478 45.344C108.286 45.568 108.222 45.808 108.286 46.064H108.238C108.238 46.128 108.206 46.192 108.142 46.256C108.078 46.384 107.998 46.528 107.902 46.688C107.806 46.848 107.678 46.944 107.518 46.976C107.486 47.104 107.454 47.248 107.422 47.408C107.39 47.536 107.358 47.632 107.326 47.696C107.294 47.76 107.262 47.84 107.23 47.936C107.198 48 107.166 48.064 107.134 48.128L106.942 48.608C106.782 48.992 106.638 49.392 106.51 49.808C106.382 50.192 106.254 50.608 106.126 51.056H106.27C106.27 51.088 106.286 51.104 106.318 51.104C106.478 51.104 106.622 51.008 106.75 50.816C106.878 50.592 106.91 50.384 106.846 50.192C107.006 50.128 107.118 50.048 107.182 49.952C107.342 49.792 107.47 49.712 107.566 49.712C107.726 49.552 107.854 49.44 107.95 49.376L108.286 49.04C108.766 48.592 109.182 48.08 109.534 47.504C109.694 47.248 109.87 46.992 110.062 46.736C110.286 46.448 110.51 46.192 110.734 45.968C110.99 45.648 111.246 45.328 111.502 45.008C111.79 44.688 112.046 44.352 112.27 44C112.494 43.648 112.718 43.312 112.942 42.992C113.198 42.672 113.454 42.352 113.71 42.032C113.934 41.776 114.158 41.52 114.382 41.264C114.606 40.976 114.798 40.672 114.958 40.352C114.894 40.288 114.862 40.224 114.862 40.16C114.862 40 115.022 39.776 115.342 39.488C115.662 39.168 116.03 38.848 116.446 38.528C116.894 38.208 117.31 37.92 117.694 37.664C118.11 37.408 118.398 37.248 118.558 37.184C118.654 37.184 118.862 37.136 119.182 37.04C119.534 36.944 119.742 36.896 119.806 36.896H119.95C119.95 37.248 119.934 37.584 119.902 37.904C119.902 38.224 119.854 38.512 119.758 38.768C119.662 39.056 119.55 39.344 119.422 39.632C119.326 39.92 119.214 40.208 119.086 40.496C118.862 41.104 118.622 41.68 118.366 42.224L117.934 43.376C117.87 43.568 117.79 43.76 117.694 43.952C117.598 44.144 117.518 44.32 117.454 44.48L117.262 44.96C117.23 45.12 117.15 45.264 117.022 45.392C117.022 45.424 117.006 45.488 116.974 45.584C116.974 45.648 116.958 45.728 116.926 45.824C117.022 45.824 117.118 45.808 117.214 45.776C116.99 46.288 116.83 46.72 116.734 47.072C116.638 47.392 116.574 47.824 116.542 48.368C116.926 47.856 117.326 47.328 117.742 46.784C118.19 46.208 118.478 45.856 118.606 45.728C118.958 45.472 119.326 45.168 119.71 44.816C120.094 44.464 120.462 44.112 120.814 43.76C121.006 43.568 121.198 43.376 121.39 43.184C121.582 42.992 121.758 42.8 121.918 42.608C122.078 42.416 122.238 42.24 122.398 42.08C122.59 41.888 122.766 41.712 122.926 41.552C123.054 41.424 123.166 41.296 123.262 41.168C123.39 41.04 123.502 40.912 123.598 40.784C123.758 40.528 123.966 40.272 124.222 40.016C124.414 39.824 124.59 39.568 124.75 39.248C124.814 39.12 124.878 38.992 124.942 38.864C125.006 38.736 125.102 38.608 125.23 38.48L125.566 38.144C125.694 38.016 125.806 37.952 125.902 37.952C126.03 37.952 126.094 38.032 126.094 38.192C126.094 38.608 125.838 39.136 125.326 39.776C124.814 40.384 124.382 40.896 124.03 41.312C123.902 41.44 123.79 41.584 123.694 41.744C123.598 41.872 123.502 42.016 123.406 42.176C123.182 42.496 122.942 42.784 122.686 43.04L121.534 44.336C121.054 44.816 120.67 45.264 120.382 45.68C119.934 46.32 119.47 46.976 118.99 47.648C118.542 48.288 118.03 48.88 117.454 49.424C117.102 49.776 116.814 50.192 116.59 50.672C116.398 51.152 116.206 51.616 116.014 52.064C116.046 52.32 116.03 52.544 115.966 52.736C115.902 52.896 115.694 52.976 115.342 52.976C115.022 52.976 114.702 52.96 114.382 52.928C114.062 52.864 113.822 52.64 113.662 52.256C113.63 52.192 113.55 52.096 113.422 51.968C113.326 51.904 113.278 51.808 113.278 51.68C113.278 51.648 113.294 51.616 113.326 51.584V51.488L113.614 51.344V51.296C113.582 51.136 113.55 50.976 113.518 50.816C113.518 50.656 113.518 50.496 113.518 50.336C113.518 50.016 113.534 49.712 113.566 49.424C113.598 49.104 113.646 48.784 113.71 48.464C113.774 48.176 113.838 47.888 113.902 47.6C113.966 47.28 114.014 46.96 114.046 46.64C114.11 46.64 114.11 46.608 114.046 46.544C114.11 45.904 114.27 45.264 114.526 44.624C114.782 43.984 115.022 43.36 115.246 42.752C115.502 42.112 115.63 41.504 115.63 40.928V40.736C115.534 40.96 115.406 41.152 115.246 41.312C115.182 41.44 115.118 41.552 115.054 41.648C114.99 41.744 114.91 41.84 114.814 41.936L114.67 42.032C114.51 42.16 114.398 42.368 114.334 42.656C114.302 42.784 114.254 42.912 114.19 43.04C114.126 43.136 114.062 43.248 113.998 43.376C113.966 43.44 113.854 43.568 113.662 43.76L113.518 43.856C113.422 43.92 113.342 44 113.278 44.096C113.214 44.192 113.15 44.272 113.086 44.336C112.894 44.72 112.654 45.056 112.366 45.344C112.206 45.504 112.046 45.68 111.886 45.872C111.758 46.032 111.614 46.192 111.454 46.352L111.262 46.64C111.134 46.768 111.054 46.88 111.022 46.976L110.446 47.984C110.382 48.112 110.302 48.224 110.206 48.32C110.11 48.416 110.03 48.496 109.966 48.56C109.742 48.72 109.566 48.912 109.438 49.136C108.99 49.744 108.606 50.336 108.286 50.912C108.094 51.232 107.87 51.536 107.614 51.824C107.39 52.08 107.15 52.336 106.894 52.592C106.766 52.72 106.654 52.832 106.558 52.928C106.462 53.024 106.382 53.12 106.318 53.216C106.254 53.312 106.174 53.408 106.078 53.504C105.982 53.6 105.902 53.68 105.838 53.744L104.926 54.656C104.414 55.072 103.95 55.328 103.534 55.424C103.118 55.456 102.59 55.552 101.95 55.712H101.71ZM107.614 46.304H107.662C107.758 46.208 107.822 46.128 107.854 46.064L107.902 46.016L107.806 45.824C107.774 45.92 107.742 46.016 107.71 46.112C107.678 46.176 107.646 46.24 107.614 46.304ZM115.822 49.376C115.886 49.312 115.934 49.248 115.966 49.184C116.03 49.088 116.094 48.992 116.158 48.896C116.126 48.896 116.046 48.928 115.918 48.992C115.886 49.056 115.854 49.12 115.822 49.184C115.79 49.248 115.79 49.312 115.822 49.376ZM135.385 61.6C134.591 61.6 133.798 61.53 133.005 61.39C130.765 61.0167 129.365 60.06 128.805 58.52C128.618 58.0067 128.525 57.4233 128.525 56.77C128.525 54.9967 129.248 53.0833 130.695 51.03C132.188 48.93 134.335 46.9933 137.135 45.22C139.981 43.4 143.388 42.0467 147.355 41.16C149.641 40.6467 151.975 40.2733 154.355 40.04C156.781 39.8067 159.161 39.69 161.495 39.69C163.455 39.69 165.345 39.76 167.165 39.9C170.245 36.7733 173.208 33.5533 176.055 30.24C178.948 26.9267 181.515 23.8233 183.755 20.93C183.755 20.8833 183.731 20.8367 183.685 20.79C183.685 20.6967 183.685 20.6267 183.685 20.58C183.591 19.7867 183.031 19.2033 182.005 18.83C180.978 18.41 179.811 18.1533 178.505 18.06C177.198 17.92 176.008 17.85 174.935 17.85C173.861 17.85 173.255 17.85 173.115 17.85C170.688 18.0367 168.308 18.34 165.975 18.76C163.688 19.1333 161.938 19.5767 160.725 20.09C159.558 20.5567 158.625 21.07 157.925 21.63C157.225 22.1433 156.875 22.7033 156.875 23.31C156.875 24.1033 157.551 24.8967 158.905 25.69C158.998 25.7367 159.045 25.83 159.045 25.97C159.045 26.11 158.998 26.2267 158.905 26.32C158.811 26.4133 158.718 26.4367 158.625 26.39C156.805 25.3633 155.895 24.1733 155.895 22.82C155.895 21.0467 157.131 19.6933 159.605 18.76C160.305 18.48 161.495 18.2 163.175 17.92C164.855 17.5933 166.745 17.3367 168.845 17.15C170.991 16.9633 173.091 16.87 175.145 16.87C177.571 16.87 179.695 17.0567 181.515 17.43C183.335 17.7567 184.361 18.3867 184.595 19.32C184.641 19.46 184.641 19.6233 184.595 19.81C184.968 19.3433 185.318 18.9 185.645 18.48C185.971 18.0133 186.298 17.5467 186.625 17.08C186.671 16.9867 186.788 16.94 186.975 16.94C187.115 16.94 187.231 17.01 187.325 17.15C187.418 17.29 187.395 17.43 187.255 17.57C185.901 19.4367 184.221 21.6767 182.215 24.29C180.208 26.8567 178.061 29.5167 175.775 32.27C173.488 34.9767 171.201 37.5667 168.915 40.04C173.068 40.46 176.381 41.0433 178.855 41.79C178.995 41.2767 179.135 40.7867 179.275 40.32C179.415 39.8533 179.578 39.3867 179.765 38.92C180.651 36.4467 181.631 33.9967 182.705 31.57C183.778 29.0967 184.828 26.7867 185.855 24.64C186.928 22.4933 187.861 20.6733 188.655 19.18C189.495 17.64 190.101 16.6133 190.475 16.1C190.708 15.7733 191.058 15.54 191.525 15.4C192.038 15.2133 192.481 15.12 192.855 15.12C193.601 15.12 193.858 15.3067 193.625 15.68C193.018 16.52 192.155 17.8967 191.035 19.81C189.961 21.6767 188.771 23.8933 187.465 26.46C186.205 28.98 184.991 31.64 183.825 34.44C182.658 37.24 181.725 39.97 181.025 42.63C181.585 42.91 181.935 43.19 182.075 43.47C182.121 43.5167 182.145 43.61 182.145 43.75C182.145 43.9367 182.051 44.1 181.865 44.24C181.678 44.38 181.538 44.3567 181.445 44.17C181.398 44.0767 181.305 44.0067 181.165 43.96C181.071 43.8667 180.955 43.7733 180.815 43.68C180.581 44.7067 180.371 45.7333 180.185 46.76C180.045 47.74 179.975 48.6967 179.975 49.63C179.975 51.4967 180.325 53.0833 181.025 54.39C181.771 55.65 182.985 56.4667 184.665 56.84C184.898 56.8867 185.108 56.91 185.295 56.91C185.528 56.9567 185.761 56.98 185.995 56.98C186.695 56.98 187.418 56.8167 188.165 56.49C188.911 56.21 189.611 55.6967 190.265 54.95C190.358 54.8567 190.498 54.81 190.685 54.81C190.918 54.81 191.105 54.88 191.245 55.02C191.385 55.16 191.385 55.3 191.245 55.44C190.498 56.28 189.681 56.8867 188.795 57.26C187.908 57.6333 186.998 57.82 186.065 57.82C185.505 57.82 184.945 57.75 184.385 57.61C182.005 57.0967 180.325 55.9767 179.345 54.25C178.365 52.5233 177.875 50.5167 177.875 48.23C177.875 47.39 177.945 46.5267 178.085 45.64C178.225 44.7067 178.388 43.7733 178.575 42.84C177.361 42.4667 175.821 42.14 173.955 41.86C172.135 41.5333 170.128 41.2767 167.935 41.09L166.535 42.56C164.761 44.4267 162.661 46.4567 160.235 48.65C157.855 50.8433 155.288 52.92 152.535 54.88C149.781 56.84 146.935 58.45 143.995 59.71C141.101 60.97 138.231 61.6 135.385 61.6ZM136.995 59.78C139.561 59.78 142.151 59.1733 144.765 57.96C147.425 56.7467 150.015 55.2067 152.535 53.34C155.101 51.4267 157.528 49.3733 159.815 47.18C162.148 44.9867 164.271 42.91 166.185 40.95C164.318 40.81 162.428 40.74 160.515 40.74C158.508 40.74 156.525 40.8333 154.565 41.02C152.651 41.2067 150.738 41.51 148.825 41.93C146.025 42.5833 143.551 43.4933 141.405 44.66C139.305 45.78 137.555 47.0167 136.155 48.37C134.988 49.49 133.985 50.7733 133.145 52.22C132.351 53.62 131.955 54.9267 131.955 56.14C131.955 57.1667 132.328 58.03 133.075 58.73C133.868 59.43 135.175 59.78 136.995 59.78Z" fill="black"/>
</svg>
